<?xml version="1.0" encoding="utf-8"?>
<!DOCTYPE svg PUBLIC "-//W3C//DTD SVG 1.0//EN" "http://www.w3.org/TR/2001/REC-SVG-20010904/DTD/svg10.dtd">
<svg version="1.0" xmlns="http://www.w3.org/2000/svg" width="842px" height="842px" viewBox="0 0 842 842" preserveAspectRatio="xMidYMid meet">
 <g fill="#301f0d">
  <path d="M359.60 730.17 c-103.50 -23.24 -191.20 -111.83 -212.69 -214.89 -21.49 -103.50 18.42 -214.89 99.11 -275.84 58.76 -44.73 115.78 -62.27 189.89 -58.33 51.75 2.63 89.02 13.16 129.37 36.84 31.14 18.42 85.52 69.29 81.57 75.87 -1.32 2.63 -0.88 4.39 1.75 4.39 7.02 0 26.75 36.40 38.59 71.48 14.47 42.10 17.54 99.11 8.33 143.40 -20.61 99.11 -98.67 183.31 -195.59 212.25 -34.21 10.52 -105.25 12.72 -140.33 4.82z m119.72 -9.21 c17.54 -3.95 42.54 -12.28 55.69 -18.42 13.16 -6.14 26.75 -11.40 29.38 -10.96 3.07 0 4.39 -1.32 3.07 -3.51 -1.32 -2.19 0 -4.39 2.19 -4.39 2.63 -0.44 6.58 -0.88 8.77 -1.32 2.19 0 5.70 -2.19 7.89 -4.39 2.19 -2.19 0.88 -2.63 -3.07 -0.88 -3.51 1.75 -2.63 0.44 1.75 -3.51 4.39 -3.51 9.65 -5.70 11.40 -4.82 4.39 2.63 36.40 -31.58 37.71 -40.35 0.88 -4.39 5.70 -11.40 11.40 -16.23 5.26 -4.39 10.09 -10.09 10.09 -13.16 0.44 -2.63 6.14 -16.66 12.72 -31.14 33.77 -72.36 31.58 -160.07 -5.70 -233.74 -7.02 -14.47 -11.84 -27.63 -10.09 -29.38 1.75 -2.19 0.44 -2.19 -2.19 -0.44 -3.07 1.75 -6.14 0.88 -6.14 -1.32 -0.44 -2.63 -0.88 -7.46 -1.32 -10.09 0 -3.07 -3.07 -5.70 -6.14 -5.70 -6.14 0 -14.47 -10.96 -11.40 -15.79 0.88 -1.75 -1.32 -5.26 -4.82 -8.33 -3.51 -3.07 -6.58 -3.95 -6.58 -2.63 0 1.75 -4.39 0 -9.65 -3.95 -5.70 -3.51 -10.09 -9.21 -10.09 -12.28 0 -2.63 -2.63 -5.70 -5.26 -5.70 -3.07 -0.44 -7.89 -0.88 -10.52 -1.32 -2.19 0 -3.07 -2.63 -1.75 -4.82 1.75 -2.63 1.32 -4.39 -0.88 -3.95 -9.21 1.75 -14.91 -0.88 -11.84 -5.70 1.75 -2.63 1.32 -3.51 -1.32 -2.19 -2.63 1.75 -15.35 -1.75 -28.07 -7.89 -36.40 -16.23 -72.36 -24.12 -112.27 -24.12 -47.36 0 -74.55 6.14 -118.41 26.31 -19.73 9.21 -37.28 15.35 -39.03 14.03 -1.75 -1.75 -1.75 -0.44 0 2.63 1.75 2.63 0.88 5.70 -1.32 5.70 -2.63 0.44 -7.46 0.88 -10.09 1.32 -3.07 0.44 -5.26 3.07 -4.82 6.14 0.88 2.63 -2.63 7.02 -7.46 9.65 -4.82 2.63 -8.77 3.51 -8.77 1.75 0 -1.75 -3.95 0.44 -8.77 4.82 -4.82 4.39 -7.46 9.21 -6.58 10.96 1.32 1.75 -1.32 7.02 -5.70 11.84 -3.95 4.39 -5.26 5.26 -3.07 1.32 3.95 -5.70 3.51 -5.70 -3.07 -0.88 -4.39 3.51 -7.46 7.46 -7.02 8.77 0.88 8.77 -1.32 14.03 -5.26 11.84 -2.63 -1.75 -4.39 -1.32 -3.95 0.88 1.75 9.21 -0.88 14.91 -5.70 11.84 -2.63 -1.75 -3.51 -1.32 -2.19 1.32 1.75 2.63 -2.19 15.79 -7.89 28.94 -32.89 71.48 -29.38 174.10 7.46 234.18 4.82 7.89 7.46 16.23 6.14 18.42 -1.75 2.19 -0.44 5.70 2.19 7.46 3.51 2.19 3.95 1.32 1.75 -2.63 -2.63 -3.95 -1.75 -4.82 1.75 -2.63 3.07 2.19 4.39 6.14 3.07 9.21 -1.32 3.51 1.32 8.33 5.26 11.84 7.02 5.26 7.02 4.82 0.88 -3.07 -6.14 -8.33 -6.14 -8.33 1.32 -2.63 4.39 3.51 7.02 8.77 5.70 11.40 -2.19 6.58 29.38 38.59 39.47 39.91 3.95 0.88 9.65 3.51 12.28 6.58 3.51 3.95 3.51 4.39 -1.32 1.75 -4.39 -2.19 -5.26 -1.75 -3.07 1.75 1.75 2.63 5.26 3.95 7.46 2.63 2.19 -1.75 9.21 0.88 16.23 5.70 21.05 14.91 57.89 28.94 99.55 37.71 21.05 4.39 71.04 2.19 99.99 -4.39z"/>
  <path d="M363.99 707.81 c-121.04 -25.87 -209.18 -143.40 -200.41 -267.07 9.21 -132 109.64 -230.23 242.07 -237.69 79.81 -4.39 140.77 18.42 197.78 75.43 56.13 55.69 79.38 115.78 74.99 192.96 -3.95 67.10 -28.51 120.60 -77.18 168.84 -62.71 61.83 -149.54 86.39 -237.25 67.54z m106.13 -137.70 c11.40 -5.26 28.07 -16.23 37.28 -24.56 l16.66 -14.91 -26.31 10.96 c-14.47 6.14 -31.58 14.91 -38.15 19.73 -8.77 6.58 -18.86 8.77 -38.59 8.77 -19.73 0 -29.82 -2.19 -38.59 -8.77 -6.58 -4.82 -23.68 -13.59 -37.71 -19.73 -29.38 -12.72 -27.63 -6.58 3.51 15.35 40.78 27.63 81.57 32.01 121.91 13.16z m-181.99 -132.44 c-0.88 -5.70 -1.75 -1.32 -1.75 9.65 0 10.96 0.88 15.35 1.75 10.09 0.88 -5.70 0.88 -14.47 0 -19.73z m267.51 0 c-0.88 -5.70 -1.75 -1.32 -1.75 9.65 0 10.96 0.88 15.35 1.75 10.09 0.88 -5.70 0.88 -14.47 0 -19.73z m-133.32 -123.23 c13.59 -1.75 13.59 -1.75 -2.19 -2.19 -18.42 -0.88 -21.93 2.19 -17.54 17.10 l3.07 10.52 1.32 -11.84 c1.32 -9.65 3.95 -12.28 15.35 -13.59z"/>
  <path d="M225.85 648.16 l-17.54 -18.86 18.86 17.54 c17.10 15.79 20.61 19.73 17.10 19.73 -0.88 0 -9.21 -8.33 -18.42 -18.42z"/>
  <path d="M611.77 649.04 c9.21 -9.65 17.98 -17.54 19.30 -17.54 1.32 0 -5.70 7.89 -14.91 17.54 -9.21 9.65 -17.98 17.54 -19.30 17.54 -1.32 0 5.70 -7.89 14.91 -17.54z"/>
  <path d="M164.45 221.46 c-11.40 -11.40 -14.03 -27.63 -6.14 -42.10 2.19 -4.82 6.58 -7.02 9.21 -5.70 3.07 1.75 3.51 1.32 1.75 -1.75 -1.75 -3.51 1.32 -7.02 8.33 -9.65 14.47 -5.70 31.14 2.63 45.17 21.49 9.21 12.72 9.65 14.47 3.07 26.75 -12.72 24.56 -42.98 29.82 -61.40 10.96z"/>
  <path d="M627.55 221.02 c-12.72 -16.23 -11.84 -23.68 3.51 -23.68 12.28 0 12.72 -0.88 10.52 -15.35 -2.19 -13.16 -0.88 -15.79 7.89 -19.30 13.16 -4.82 32.45 4.39 35.96 16.66 2.63 10.52 0 13.59 -11.40 13.59 -7.02 0 -7.89 2.19 -5.70 10.96 7.02 27.19 -23.24 39.47 -40.78 17.10z"/>
  <path d="M252.16 160.94 c-6.58 -14.91 -12.72 -29.38 -14.03 -32.45 -2.63 -6.58 20.61 -18.86 35.52 -18.86 14.91 0 28.07 19.30 21.05 30.70 -3.95 6.14 -3.51 9.21 1.32 13.16 3.51 3.07 5.26 7.02 3.95 9.21 -1.32 2.19 1.32 2.63 5.70 0.88 6.58 -2.19 7.02 -1.32 2.63 3.07 -4.39 4.82 -8.33 4.39 -20.61 -2.19 -17.98 -9.65 -23.68 -6.58 -16.66 8.33 3.51 8.33 3.51 10.96 -1.32 12.72 -3.51 1.75 -9.65 -6.58 -17.54 -24.56z"/>
  <path d="M552.12 177.61 c-16.66 -9.21 -17.98 -21.49 -5.26 -50.43 l10.96 -25.87 24.56 10.96 c13.59 6.14 25.44 11.84 26.31 12.72 3.51 3.51 -17.54 47.80 -25 53.50 -9.21 7.02 -17.54 7.02 -31.58 -0.88z"/>
  <path d="M338.99 154.81 c1.32 -2.19 5.70 -18.86 9.65 -37.71 6.58 -29.38 8.77 -34.21 16.23 -32.89 11.40 1.75 46.49 64.90 35.96 64.90 -3.95 0 -9.65 -3.07 -12.72 -7.02 -7.02 -10.09 -32.89 -4.39 -32.89 7.46 0 5.70 -3.07 8.33 -9.21 8.33 -4.82 0 -7.89 -1.32 -7.02 -3.07z"/>
  <path d="M445.56 150.42 c-7.02 -1.75 -7.46 -5.26 -4.82 -26.75 5.26 -44.73 5.26 -45.17 23.68 -42.10 25.44 4.39 37.71 15.35 39.03 35.52 1.32 14.91 -0.44 19.30 -10.52 27.19 -10.96 8.77 -28.07 10.96 -47.36 6.14z"/>
 </g>
 <g fill="#fbfafa">
  <path d="M331.10 670.09 c3.51 -11.84 14.03 -21.05 23.68 -21.05 3.95 -0.44 0 -3.51 -8.33 -7.02 -10.96 -4.82 -15.79 -5.26 -17.10 -1.32 -5.70 17.98 -35.52 29.38 -35.52 13.59 0 -11.84 8.77 -18.42 24.12 -18.42 l13.16 0 -14.91 -9.21 c-13.16 -7.89 -15.79 -8.33 -19.73 -3.07 -10.52 14.03 -37.71 19.73 -37.71 7.89 0 -7.46 17.98 -18.42 27.63 -16.66 8.77 1.75 10.09 0 10.96 -11.40 1.75 -20.17 5.26 -28.94 12.28 -28.94 8.33 0 8.33 23.68 -0.44 30.70 -8.77 7.46 -5.26 11.40 19.73 24.12 25 12.72 34.64 14.47 26.31 4.82 -6.14 -7.89 -4.39 -25.44 3.07 -27.63 7.89 -2.63 14.91 14.03 10.52 25.87 -3.07 8.33 -1.75 10.96 7.89 15.79 l11.40 5.26 -11.84 -2.19 c-10.09 -1.75 -12.72 -0.44 -14.91 8.77 -3.07 11.84 -13.59 19.73 -25.87 19.73 -5.26 0 -6.58 -2.63 -4.39 -9.65z"/>
  <path d="M484.15 668.34 c-8.77 -12.72 -3.51 -21.93 10.09 -17.54 9.21 3.07 20.17 21.93 15.79 26.31 -6.14 6.14 -19.30 1.75 -25.87 -8.77z"/>
  <path d="M415.30 663.95 c-7.02 -7.02 -3.07 -19.30 6.14 -19.30 6.58 0 8.77 2.19 7.46 9.65 -1.32 9.65 -8.33 14.47 -13.59 9.65z"/>
  <path d="M522.30 653.87 c-4.39 -4.39 -8.77 -10.52 -9.65 -13.16 -1.32 -3.07 -9.21 -1.75 -25.44 3.95 -12.72 5.26 -25.87 8.33 -28.51 7.46 -2.63 -1.32 0.44 -3.51 7.02 -5.26 10.52 -2.63 11.40 -4.39 7.02 -13.16 -5.26 -11.40 2.19 -30.26 10.96 -27.19 7.46 2.19 9.21 19.73 3.07 27.63 -8.33 9.65 1.32 7.89 26.31 -4.82 25 -12.72 28.51 -16.66 19.73 -24.12 -7.02 -6.14 -9.21 -30.70 -2.63 -30.70 7.46 0 16.23 16.66 15.35 29.82 -0.88 10.96 0.44 12.28 10.96 10.52 14.91 -2.19 32.45 14.91 22.37 21.05 -8.77 5.70 -22.37 1.32 -31.14 -9.65 -6.58 -8.77 -7.02 -8.77 -21.93 0.44 -14.91 9.21 -14.91 9.21 -3.07 9.21 12.72 0 25.44 10.09 25.44 20.17 0 8.77 -16.23 7.46 -25.87 -2.19z"/>
  <path d="M324.52 618.34 c-3.51 -6.14 -3.51 -11.40 0 -17.54 9.21 -17.10 21.05 -5.70 15.79 15.35 -3.51 13.16 -9.65 14.03 -15.79 2.19z"/>
  <path d="M501.69 621.41 c-3.95 -10.96 0 -27.19 7.02 -27.19 4.39 0 6.58 4.39 6.58 14.91 0 15.79 -9.21 23.68 -13.59 12.28z"/>
  <path d="M234.62 605.19 c-5.70 -9.21 7.46 -17.98 23.68 -16.66 13.59 1.32 15.79 0 16.23 -8.33 0.88 -14.91 5.26 -23.24 12.72 -23.24 9.65 0 8.33 20.61 -2.19 27.19 -8.33 5.26 -8.33 5.70 1.32 16.66 l9.65 10.96 -11.40 -10.09 -11.40 -9.65 -7.89 8.77 c-8.33 9.21 -26.31 11.84 -30.70 4.39z"/>
  <path d="M556.51 599.05 c12.72 -13.59 15.35 -14.47 9.65 -3.07 -2.63 4.39 -7.89 9.65 -12.28 10.96 -5.70 2.19 -4.82 0.44 2.63 -7.89z"/>
  <path d="M576.68 602.56 c-5.70 -6.14 -6.14 -8.33 -1.32 -10.96 8.77 -5.70 23.68 -4.39 29.82 2.63 11.84 14.47 -14.47 21.93 -28.51 8.33z"/>
  <path d="M372.76 589.40 c-65.78 -24.12 -104.37 -82.88 -99.99 -153.05 3.51 -55.26 31.58 -96.92 81.57 -121.48 26.75 -13.16 32.89 -14.47 68.85 -14.47 36.84 0 41.22 1.32 67.97 15.79 35.96 19.73 62.71 51.31 72.80 85.95 9.65 33.77 6.58 80.25 -7.02 109.20 -13.59 27.63 -44.73 58.33 -72.36 71.48 -28.94 14.03 -82.88 17.10 -111.83 6.58z m26.31 -43.42 c-10.96 -11.84 -66.66 -41.66 -77.18 -41.66 -4.82 0 -6.14 -11.84 -6.14 -57.01 0 -47.80 -0.88 -57.01 -6.58 -57.01 -5.70 0 -6.58 9.65 -6.58 60.96 l0 60.96 16.66 3.07 c19.30 3.51 77.18 29.82 81.57 36.84 1.75 2.63 4.39 4.82 5.70 4.82 1.75 0 -1.75 -4.82 -7.46 -10.96z m79.38 -14.91 c15.79 -7.02 35.96 -14.03 44.73 -15.79 l16.66 -3.07 -1.32 -62.27 c-1.75 -79.38 -9.65 -81.57 -11.40 -3.07 l-1.32 57.01 -16.23 5.26 c-22.80 7.02 -59.20 28.07 -69.29 39.91 -8.33 10.09 -8.33 10.09 0.44 2.63 5.26 -4.39 21.93 -13.59 37.71 -20.61z m1.75 -16.23 c16.66 -8.33 32.89 -14.91 35.96 -14.91 4.39 0 5.70 -14.91 5.70 -63.59 0 -35.08 -1.32 -63.59 -2.63 -63.59 -8.33 0 -60.96 29.38 -76.31 42.54 l-17.54 15.35 0 60.52 0 60.96 12.28 -11.40 c6.58 -6.14 25.44 -17.98 42.54 -25.87z m-74.99 -94.29 c-10.96 -11.84 -48.68 -33.77 -73.24 -42.98 l-11.84 -4.82 0 63.59 c0 48.68 1.32 63.59 5.70 63.59 7.89 0 64.47 28.51 77.62 39.03 l10.96 8.77 1.32 -57.45 c1.32 -57.01 0.88 -57.89 -10.52 -69.73z m18.86 -72.80 c-0.88 -11.84 -1.32 -2.19 -1.32 20.61 0 22.80 0.44 32.45 1.32 21.05 0.88 -11.84 0.88 -30.26 0 -41.66z m27.19 12.28 c7.46 -22.80 11.84 -39.91 10.09 -37.28 -2.19 2.19 -9.21 19.30 -15.79 38.15 -6.58 18.86 -13.16 37.71 -14.47 41.66 -1.75 4.82 -1.32 6.14 1.75 3.07 2.63 -2.19 10.52 -22.80 18.42 -45.61z m-54.82 0.88 c-6.58 -18.86 -13.59 -35.96 -15.79 -38.15 -1.75 -2.63 2.63 14.03 10.09 36.40 7.46 22.37 14.47 39.47 15.79 38.59 0.88 -1.32 -3.51 -17.54 -10.09 -36.84z m-13.59 27.63 c-7.89 -13.16 -34.64 -46.05 -37.28 -46.49 -2.19 0 5.70 11.84 17.10 26.31 19.30 25 28.07 33.77 20.17 20.17z m95.16 -18.42 c10.09 -13.16 17.54 -25 16.66 -26.31 -1.75 -1.32 -25.87 28.94 -35.52 45.17 -8.33 14.03 1.75 3.51 18.86 -18.86z"/>
  <path d="M438.54 516.16 c0 -3.51 39.91 -28.07 53.94 -33.33 18.42 -7.02 14.03 -1.75 -6.58 7.89 -10.52 4.82 -25.44 12.72 -32.89 17.98 -7.89 5.26 -14.47 8.77 -14.47 7.46z"/>
  <path d="M442.93 488.97 c8.33 -10.09 43.85 -30.26 46.92 -26.75 1.75 1.32 0.88 2.63 -1.75 2.63 -2.63 0 -15.35 7.02 -27.63 15.35 -12.72 8.77 -20.61 12.72 -17.54 8.77z"/>
  <path d="M438.54 470.99 c0 -4.82 47.36 -36.84 54.38 -36.84 2.63 0 -3.95 5.26 -14.91 11.40 -10.96 6.14 -24.12 15.35 -29.38 20.17 -5.70 5.26 -10.09 7.46 -10.09 5.26z"/>
  <path d="M438.54 445.12 c0 -4.39 53.94 -37.28 60.96 -37.28 3.95 0.44 0 3.51 -8.33 7.02 -8.33 3.51 -21.05 10.96 -28.51 16.66 -17.54 13.16 -24.12 16.66 -24.12 13.59z"/>
  <path d="M374.95 501.69 c-11.84 -8.33 -19.73 -14.91 -17.10 -14.91 2.63 0 14.47 7.02 26.31 15.35 27.63 19.73 19.73 19.30 -9.21 -0.44z"/>
  <path d="M385.92 484.15 c-8.33 -6.14 -23.24 -14.91 -32.89 -19.73 -9.65 -4.39 -12.72 -7.02 -6.58 -5.70 13.59 3.51 45.61 21.93 52.63 30.26 7.46 9.21 4.82 7.89 -13.16 -4.82z"/>
  <path d="M394.25 466.61 c-3.07 -3.95 -15.79 -12.72 -28.07 -19.73 -11.84 -7.02 -19.73 -12.72 -17.10 -12.72 6.14 0 42.10 23.24 49.56 32.01 3.07 3.95 4.82 7.46 3.51 7.46 -0.88 0 -4.82 -3.07 -7.89 -7.02z"/>
  <path d="M388.99 438.54 c-6.14 -4.82 -19.73 -14.03 -30.26 -19.73 -10.52 -6.14 -16.66 -10.96 -14.03 -10.96 5.26 0 58.76 33.77 58.76 37.28 0 3.95 -2.63 2.63 -14.47 -6.58z"/>
  <path d="M262.25 580.19 c-8.33 -10.09 -13.59 -18.86 -10.52 -18.86 0.88 0 6.14 6.14 11.40 13.16 10.09 14.47 9.65 17.54 -0.88 5.70z"/>
  <path d="M553.44 582.38 c-3.07 -3.07 -5.26 -10.96 -5.26 -17.54 0 -11.40 0.88 -12.28 8.77 -7.89 4.82 2.63 10.09 9.65 11.40 15.79 l3.07 11.40 10.52 -12.72 c7.89 -9.21 9.21 -9.65 5.70 -2.63 -7.46 15.79 -25 22.80 -34.21 13.59z"/>
  <path d="M213.13 573.17 c-7.02 -5.26 -7.02 -6.14 -0.88 -11.40 3.95 -3.07 12.72 -4.82 20.17 -3.95 7.02 1.32 13.16 1.32 13.16 0.88 0 -0.88 -2.19 -6.58 -5.26 -12.72 -5.26 -11.40 -10.09 -14.03 -14.47 -6.58 -3.95 6.58 -22.37 5.26 -28.51 -2.19 -2.63 -3.51 -3.95 -8.33 -2.19 -10.96 3.51 -6.14 25.44 -5.70 32.01 0.88 3.51 3.51 3.51 0.88 0 -10.52 -3.95 -13.59 -3.51 -16.66 5.70 -27.19 9.65 -10.96 25.87 -15.79 25.87 -7.02 0 7.89 -17.98 22.80 -24.56 20.17 -7.46 -3.07 -7.46 4.39 0.44 21.49 l5.70 13.16 0.44 -11.84 c0.44 -11.40 15.35 -25 21.05 -19.30 5.26 4.82 -3.51 24.12 -12.28 26.75 -6.14 2.19 -7.89 5.26 -6.14 10.09 6.58 15.79 5.70 27.19 -2.19 31.58 -10.96 5.70 -18.86 5.70 -28.07 -1.32z"/>
  <path d="M597.73 573.61 c-4.82 -6.14 -4.39 -18.42 0.88 -30.70 2.19 -5.70 0.44 -8.77 -7.89 -11.84 -10.96 -4.39 -18.42 -20.61 -11.40 -24.56 7.89 -5.26 21.49 7.02 21.49 18.86 0.44 8.77 1.32 10.09 3.95 5.26 6.58 -11.84 10.09 -31.58 4.82 -28.51 -6.58 3.95 -26.31 -9.65 -26.31 -17.54 0 -3.51 2.63 -6.58 6.14 -6.58 11.40 0 20.17 5.26 20.17 11.84 0 3.51 2.19 4.82 4.39 3.51 2.63 -1.32 4.39 -14.91 4.39 -30.26 l0 -27.63 -12.28 2.19 c-13.16 1.75 -25.87 -8.33 -20.61 -16.66 3.95 -6.58 15.79 -5.26 25.44 3.51 8.77 7.02 8.77 7.02 6.14 -0.44 -1.75 -4.39 -3.07 -11.84 -3.07 -16.66 0 -7.02 -1.32 -7.46 -10.52 -3.51 -7.46 3.51 -12.72 3.51 -19.73 0 -18.86 -10.09 -4.39 -23.24 15.79 -14.03 10.09 4.39 10.96 4.39 7.89 -2.63 -7.46 -16.66 -5.70 -41.66 2.63 -49.99 11.40 -11.40 17.10 -10.52 17.10 2.19 0 6.14 -4.82 14.47 -10.96 19.30 -10.52 8.33 -10.52 9.21 -4.82 25.44 5.70 15.35 6.58 15.79 6.58 5.26 0.44 -7.02 4.39 -14.47 10.09 -18.42 13.59 -9.65 16.66 -8.77 16.66 3.95 0 7.89 -3.95 13.59 -13.16 18.86 -13.16 7.46 -17.98 23.68 -8.77 29.38 2.63 1.32 4.39 -0.44 4.39 -4.39 0 -9.21 20.61 -18.42 26.75 -12.28 6.58 6.58 -15.79 29.38 -24.56 26.31 -4.39 -2.19 -6.14 4.39 -7.46 30.26 -0.88 17.98 -0.88 32.45 0 32.45 0.88 0 4.39 -3.07 7.89 -6.58 13.59 -13.16 34.64 -4.39 23.24 9.21 -3.51 4.39 -10.52 6.14 -19.73 5.26 -11.40 -1.32 -14.91 0 -16.66 7.46 -3.95 14.47 -3.51 14.91 12.28 12.28 17.54 -2.63 25.44 5.70 13.59 14.91 -12.28 8.77 -24.56 7.02 -27.19 -3.51 -2.63 -8.77 -3.51 -8.33 -10.52 5.26 -10.52 19.73 -10.52 20.17 4.82 17.98 7.46 -0.88 16.23 0.88 20.17 3.95 6.14 5.26 6.14 6.14 -0.88 11.40 -10.09 7.02 -25.87 7.46 -31.14 0.44z"/>
  <path d="M254.35 553.44 c0 -7.89 12.72 -22.80 18.86 -22.80 5.26 0 3.51 19.73 -2.19 25.44 -7.89 7.89 -16.66 6.14 -16.66 -2.63z"/>
  <path d="M570.98 556.07 c-6.14 -6.14 -7.02 -25.44 -1.75 -25.44 6.14 0 18.42 15.35 18.42 23.24 0 8.77 -9.21 9.65 -16.66 2.19z"/>
  <path d="M188.57 497.74 c-11.40 -13.59 10.52 -21.49 23.68 -8.33 3.95 3.51 7.02 8.77 7.02 10.96 0 6.58 -24.56 4.39 -30.70 -2.63z"/>
  <path d="M219.71 461.78 c-0.44 -25.87 -1.75 -31.14 -7.02 -29.38 -8.77 3.51 -31.14 -19.30 -24.56 -25.87 6.58 -6.58 26.75 3.07 26.75 13.16 0 6.58 0.88 7.02 4.39 1.32 7.46 -11.40 4.82 -19.30 -8.77 -27.19 -9.21 -5.26 -13.16 -10.96 -13.16 -18.86 0 -14.03 6.14 -14.03 19.73 -0.44 10.52 10.96 10.96 10.96 15.79 2.19 3.51 -7.46 2.63 -10.52 -6.58 -17.54 -10.52 -8.33 -16.23 -30.26 -7.89 -30.26 7.89 0 18.86 11.84 19.73 21.05 0.88 11.84 0.44 11.84 9.65 -1.75 7.02 -10.96 7.02 -11.84 -1.75 -19.73 -15.35 -14.47 -9.21 -38.59 6.58 -25.44 8.77 7.46 6.58 32.89 -5.26 54.38 -5.26 9.65 -10.96 22.37 -12.72 27.63 -2.63 9.65 -2.19 10.09 6.14 5.26 10.09 -5.26 26.75 -2.19 26.75 4.39 0 8.33 -18.42 14.03 -28.94 9.21 -7.89 -3.51 -10.52 -3.51 -10.52 0.88 0 2.63 -1.32 10.09 -3.07 16.23 -2.63 10.52 -2.63 10.52 6.14 3.51 10.09 -9.21 21.49 -10.09 25.87 -2.63 4.39 7.02 -11.84 17.54 -23.24 15.35 -8.77 -1.75 -10.09 0 -10.09 10.96 0 11.84 0.44 12.28 7.02 6.14 8.33 -8.33 23.68 -9.21 23.68 -1.32 0 8.77 -9.21 16.23 -20.17 16.23 -7.46 0 -10.52 3.07 -11.84 12.28 -0.88 6.58 -2.19 -2.19 -2.63 -19.73z"/>
  <path d="M186.82 459.59 c-9.65 -13.16 -8.77 -16.66 3.07 -16.66 10.96 0 25 12.28 25 21.05 0 9.21 -21.05 5.70 -28.07 -4.39z"/>
  <path d="M592.91 463.98 c-7.89 -7.89 -6.58 -16.66 2.63 -16.66 9.21 0 18.42 7.89 18.42 16.23 0 7.02 -14.03 7.46 -21.05 0.44z"/>
  <path d="M627.11 463.54 c0 -8.77 14.47 -20.61 25.44 -20.61 11.40 0 11.84 3.51 2.63 16.66 -7.46 10.52 -28.07 13.59 -28.07 3.95z"/>
  <path d="M248.65 374.08 c-9.65 -9.65 10.09 -21.49 23.68 -14.47 7.02 3.95 7.89 6.14 3.51 11.40 -5.26 6.14 -22.37 8.33 -27.19 3.07z"/>
  <path d="M566.16 371.01 c-7.89 -9.21 9.21 -17.98 21.49 -11.40 10.52 5.70 11.40 0.88 2.19 -12.28 -6.58 -8.77 -7.89 -9.21 -17.10 -3.07 -10.96 7.46 -24.56 4.82 -24.56 -4.39 0 -7.46 13.16 -11.84 27.19 -9.21 9.21 1.32 10.52 0.44 8.77 -10.09 -1.75 -12.72 8.33 -25.44 16.66 -20.17 7.02 4.39 5.26 16.23 -4.82 26.75 -8.77 9.21 -8.77 10.52 -2.19 20.17 8.77 12.28 8.77 14.47 0 22.80 -8.33 8.77 -21.05 9.21 -27.63 0.88z"/>
  <path d="M271.46 347.76 c-11.40 -2.63 -12.72 -17.54 -3.07 -29.82 7.89 -10.09 7.89 -11.40 1.75 -17.98 -7.46 -7.46 -8.77 -18.42 -3.51 -27.19 3.07 -4.39 5.70 -3.51 11.40 3.07 9.65 10.96 7.89 25 -5.70 43.85 -6.14 8.33 -8.33 13.59 -5.26 11.84 7.46 -4.82 26.75 0.88 26.75 7.89 0 4.82 -11.40 13.16 -14.47 10.96 -0.44 -0.44 -3.95 -1.32 -7.89 -2.63z"/>
  <path d="M571.42 323.64 c-10.09 -13.16 -10.52 -17.98 -0.88 -9.21 5.26 5.26 8.77 10.96 7.46 12.28 -1.32 1.32 -4.39 0 -6.58 -3.07z"/>
  <path d="M288.12 321.45 c-8.33 -7.89 -2.63 -14.91 10.96 -13.59 19.30 1.75 23.24 16.66 4.39 16.66 -7.02 0 -14.03 -1.32 -15.35 -3.07z"/>
  <path d="M527.13 317.07 c0.88 -5.26 6.14 -8.33 14.47 -9.21 7.46 -0.88 14.03 -3.07 15.35 -4.39 1.32 -1.75 1.75 -2.63 0.44 -2.19 -0.88 0.44 -7.02 -2.63 -13.16 -7.02 -11.84 -8.77 -15.35 -21.05 -11.40 -39.03 2.19 -8.77 3.51 -9.65 8.77 -5.26 7.46 6.14 8.77 22.37 2.19 28.94 -3.07 3.07 -1.75 7.02 4.39 12.72 7.46 6.58 8.77 7.02 8.77 1.32 0 -3.95 3.51 -11.40 8.33 -17.10 l7.89 -10.09 3.07 9.65 c3.95 12.72 -0.44 27.19 -8.77 27.19 -3.51 0 -7.89 3.51 -9.21 7.89 -3.95 10.09 -10.09 14.03 -22.37 14.03 -7.46 0 -10.09 -2.19 -8.77 -7.46z"/>
  <path d="M292.51 293.82 c7.46 -7.89 8.33 -11.84 4.82 -17.54 -2.63 -3.95 -3.51 -12.72 -1.75 -19.30 2.63 -10.09 3.95 -11.40 9.65 -6.58 10.96 9.21 6.14 34.21 -9.21 44.29 l-13.16 9.21 9.65 -10.09z"/>
  <path d="M311.80 296.89 c-5.70 -7.46 -2.19 -11.84 10.52 -11.84 9.21 0 19.73 7.46 19.73 14.03 0 5.70 -25 3.95 -30.26 -2.19z"/>
  <path d="M499.94 299.09 c0 -6.58 10.52 -14.03 19.73 -14.03 12.72 0 16.23 4.39 10.52 11.84 -5.26 6.14 -30.26 7.89 -30.26 2.19z"/>
  <path d="M321.45 265.76 c10.52 -17.10 21.49 -22.80 31.58 -17.10 5.70 3.51 5.70 4.82 -0.44 13.59 -3.51 5.26 -10.52 9.65 -15.35 9.65 -4.82 0 -12.72 2.19 -17.10 4.39 -7.89 3.95 -7.46 3.07 1.32 -10.52z"/>
  <path d="M521.86 276.28 c-3.51 -2.19 -10.52 -4.39 -15.79 -4.39 -4.82 0 -12.72 -3.95 -17.54 -9.21 -7.02 -7.46 -7.02 -9.65 -1.75 -12.72 12.72 -8.33 18.86 -5.26 34.21 16.66 10.52 15.35 10.96 16.23 0.88 9.65z"/>
  <path d="M406.53 265.32 c1.32 -3.95 -1.32 -10.96 -5.26 -15.35 -7.89 -8.33 -7.46 -8.77 3.51 -8.77 7.46 0 11.84 -2.19 11.84 -6.58 0 -3.51 2.19 -6.58 4.39 -6.58 2.63 0 4.39 3.07 4.39 6.58 0 3.51 3.95 6.58 8.77 6.58 9.21 0 11.84 6.58 4.39 10.96 -2.19 1.32 -4.39 6.58 -4.39 11.84 0 7.46 -0.88 7.89 -6.58 3.51 -5.26 -4.39 -8.33 -4.39 -11.84 -0.88 -7.46 7.46 -12.28 6.58 -9.21 -1.32z"/>
  <path d="M175.42 210.50 c-4.82 -4.82 -8.77 -11.40 -8.77 -14.91 0 -8.77 12.28 -20.17 21.93 -20.17 4.39 0 8.77 -3.07 9.65 -6.58 0.88 -4.39 3.07 -5.26 7.89 -2.19 5.70 3.95 4.39 6.14 -6.14 14.91 -8.33 7.02 -11.84 13.16 -10.09 17.54 2.63 6.14 4.39 6.14 11.40 1.75 12.28 -7.46 16.66 -0.88 7.02 9.65 -10.09 10.96 -21.93 10.96 -32.89 0z"/>
  <path d="M635.89 210.94 c-6.14 -11.84 -5.70 -13.59 3.95 -13.59 7.46 0 13.59 7.89 13.59 17.98 0 7.46 -12.72 3.95 -17.54 -4.39z"/>
  <path d="M658.25 187.70 c-7.46 -11.84 0.44 -19.73 10.09 -10.09 8.33 8.77 8.77 13.59 1.32 16.66 -3.07 1.32 -8.33 -1.75 -11.40 -6.58z"/>
  <path d="M560.02 165.77 c-9.65 -5.26 -9.21 -11.40 1.32 -35.96 9.65 -21.05 14.91 -24.12 28.07 -14.47 7.02 5.26 7.02 6.58 -2.19 28.07 -10.09 24.56 -15.79 28.94 -27.19 22.37z"/>
  <path d="M259.18 139.46 c-4.39 -11.40 3.95 -19.30 15.35 -14.91 8.77 3.51 7.46 14.91 -2.63 20.17 -7.46 3.95 -9.65 3.07 -12.72 -5.26z"/>
  <path d="M457.40 120.60 c2.63 -24.12 3.95 -25.87 17.98 -22.37 23.24 5.70 15.35 42.10 -9.21 42.10 -10.96 0 -10.96 -0.88 -8.77 -19.73z"/>
  <path d="M361.36 120.16 c1.32 -3.95 2.63 -10.09 2.63 -14.03 0.44 -5.26 2.19 -4.39 6.58 3.51 8.33 14.91 8.33 17.54 -2.63 17.54 -6.58 0 -8.33 -1.75 -6.58 -7.02z"/>
 </g>
</svg>